<?xml version="1.0" encoding="utf-8"?>
<svg width="25" height="25" viewBox="-0.27 10.061 17.444 12.373" fill="none" xmlns="http://www.w3.org/2000/svg">
  <path d="M 9.104 22.311 C 8.983 22.311 8.862 22.287 8.749 22.242 C 8.636 22.196 8.534 22.129 8.447 22.045 L 4.507 18.188 C 4.419 18.104 4.348 18.004 4.299 17.893 C 4.249 17.782 4.225 17.663 4.223 17.542 C 4.222 17.421 4.246 17.302 4.293 17.19 C 4.339 17.078 4.408 16.976 4.496 16.891 C 4.583 16.805 4.686 16.739 4.8 16.692 C 4.914 16.646 5.037 16.624 5.159 16.625 C 5.283 16.626 5.405 16.65 5.518 16.699 C 5.631 16.746 5.734 16.814 5.819 16.902 L 9.103 20.116 L 15.016 14.331 C 15.19 14.16 15.427 14.064 15.673 14.064 C 15.92 14.064 16.155 14.16 16.33 14.33 C 16.504 14.502 16.602 14.732 16.602 14.973 C 16.602 15.214 16.504 15.446 16.33 15.616 L 9.761 22.045 C 9.675 22.129 9.573 22.196 9.46 22.242 C 9.346 22.287 9.226 22.311 9.104 22.311 Z" fill="#2FAB73" style=""/>
</svg>