<?xml version="1.0" encoding="utf-8"?>
<svg width="25" height="25" viewBox="0 10.383 25.985 20.288" fill="none" xmlns="http://www.w3.org/2000/svg">
  <path d="M 10.311 10.537 C 4.797 10.537 0.311 15.023 0.311 20.537 C 0.311 26.051 4.797 30.537 10.311 30.537 C 15.825 30.537 20.311 26.051 20.311 20.537 C 20.311 15.023 15.825 10.537 10.311 10.537 Z M 8.312 24.95 L 5.306 21.95 C 4.915 21.561 4.915 20.928 5.304 20.537 C 5.694 20.146 6.328 20.145 6.719 20.535 L 8.31 22.124 L 12.897 17.537 C 13.287 17.146 13.92 17.146 14.311 17.537 C 14.701 17.927 14.701 18.56 14.311 18.951 L 8.312 24.95 Z" fill="#2FAB73"/>
</svg>